<svg width="131" height="131" viewBox="0 0 131 131" fill="none" xmlns="http://www.w3.org/2000/svg">
<g clip-path="url(#clip0_165_46)">
<g filter="url(#filter0_d_165_46)">
<path d="M64.0949 54.5286C64.0949 54.5286 64.2716 46.7976 62.6323 37.4815L65.852 36.6841C65.852 36.6841 67.5109 52.467 66.9219 56.2498L64.0949 54.5188V54.5286Z" fill="url(#paint0_linear_165_46)"/>
<path d="M66.3733 56.7943C66.6678 56.4247 66.7856 55.9385 66.658 55.462C65.3623 50.5803 59.1488 33.3485 36.307 35.7115C35.4138 35.7991 34.7758 36.6062 34.9132 37.4814C35.8653 43.8023 40.9205 66.5771 63.5659 58.1654C64.5475 60.7133 65.8727 64.6809 65.3819 66.5285C65.3524 66.6258 65.3721 66.7133 65.4212 66.8008C65.6764 67.1703 67.6101 67.1217 67.9537 66.7716C68.0224 66.7036 68.0715 66.6063 68.0715 66.5091C68.0616 65.5658 67.9046 60.4021 66.3733 56.7943Z" fill="url(#paint1_linear_165_46)"/>
<path d="M63.6929 54.8883C65.1849 50.0649 72.1052 33.0956 94.8389 36.3825C95.7223 36.5089 96.3309 37.3355 96.1641 38.201C94.9174 44.6775 88.5861 68.4734 64.5174 56.7262C63.8303 56.3858 63.4671 55.6176 63.6929 54.8883Z" fill="url(#paint2_linear_165_46)"/>
<g opacity="0.17">
<path d="M59.3052 54.4116C59.0893 54.4116 58.8831 54.3144 58.7359 54.1393C51.0696 44.4732 41.931 42.2754 41.8328 42.256C41.4402 42.1685 41.2046 41.7795 41.2929 41.4002C41.3813 41.021 41.7739 40.7779 42.1567 40.8654C42.5494 40.9529 51.8647 43.1798 59.8647 53.2641C60.1101 53.5753 60.061 54.0227 59.7469 54.2658C59.6193 54.3727 59.4623 54.4214 59.3052 54.4214V54.4116Z" fill="#3E4D22"/>
</g>
<g opacity="0.17">
<path d="M69.2491 55.0924C69.1509 55.0535 69.0527 54.9951 68.9742 54.9076C68.6994 54.6159 68.719 54.1685 69.0135 53.8962C69.4552 53.4975 79.8797 44.0064 89.8528 40.0874C90.2258 39.9416 90.638 40.1263 90.7853 40.4861C90.9325 40.8557 90.746 41.2641 90.3828 41.41C80.665 45.222 70.0932 54.8395 69.9853 54.9368C69.7791 55.1313 69.4847 55.1701 69.2393 55.0826L69.2491 55.0924Z" fill="#3E4D22"/>
</g>
<path d="M51.0984 12.645C52.1094 11.9837 53.4248 12.0323 54.6321 12.1004C55.2898 12.1393 56.0555 12.2462 56.3597 12.82C56.9193 11.974 57.2236 10.9821 57.8125 10.1555C60.6297 6.34347 66.4309 7.98691 68.2272 11.974C71.0837 9.08578 76.8064 9.98044 78.2297 13.88C78.3769 14.4926 78.2493 15.1442 78.0923 15.7568C77.1009 19.5591 74.7843 23.0016 71.6432 25.3841C66.5094 29.2641 58.745 30.4992 53.1303 26.9497C50.961 25.5202 48.8015 22.7195 48.615 20.0356C48.4579 17.8865 49.1843 13.8897 51.1082 12.6352L51.0984 12.645Z" fill="url(#paint3_linear_165_46)"/>
<path d="M66.4408 36.9271C66.5684 37.7732 67.4224 38.2497 68.2371 38.3469C70.0727 38.5706 71.7708 37.4037 73.1549 36.1784C76.404 33.2999 79.1623 29.5754 79.7218 25.2966C80.2126 21.1054 78.6715 15.2901 82.9708 12.645C82.1954 11.6337 80.6837 11.5754 79.4273 11.8087C75.8248 12.4797 72.8506 14.8914 71.1328 18.0519C67.7463 23.7602 66.3328 30.3534 66.4408 36.9271Z" fill="url(#paint4_linear_165_46)"/>
<path d="M59.5601 37.3452C57.862 35.8574 56.5466 34 55.3491 32.094C54.3184 30.7326 54.0828 29.0599 54.6129 27.4457C55.5258 23.8865 57.3025 20.6191 59.0595 17.3905C59.4816 16.6126 59.9528 15.786 60.7479 15.3678C61.6411 14.9011 62.7307 15.0664 63.7221 15.2414C65.4497 15.5429 67.2951 15.9124 68.5319 17.1474C69.9552 18.8492 70.9761 20.94 71.7221 23.021C72.5074 26.0745 72.5172 29.4392 72.0558 32.551C71.3785 35.3809 69.1405 37.4911 66.9123 39.2318C64.635 41.0016 61.4644 39.0178 59.5699 37.3549L59.5601 37.3452Z" fill="url(#paint5_linear_165_46)"/>
<path d="M52.3849 19.5883C49.6364 18.6742 44.3849 16.9626 42.834 20.3273C45.6413 21.2998 46.5837 24.4505 47.3591 27.0178C48.5763 30.859 50.4708 34.8266 54.034 36.752C56.0659 37.812 58.3726 38.2496 60.5616 38.94C61.2389 39.1345 62.0438 39.2998 62.5739 38.8428C64.3702 36.4019 63.4769 32.9497 62.0929 30.3825C60.7677 27.9708 58.8831 25.9092 57.7248 23.41C56.6941 21.2123 54.6131 20.337 52.3947 19.598L52.3849 19.5883Z" fill="url(#paint6_linear_165_46)"/>
<path d="M90.1465 115.384H42.5784C40.4189 115.384 31.1919 71.7894 31.1919 68.9304V58.6613C31.1919 55.8023 32.9489 53.4781 35.1085 53.4781H96.8901C99.0496 53.4781 100.807 55.8023 100.807 58.6613V68.9304C100.807 71.7894 92.306 115.384 90.1465 115.384Z" fill="#A57E68"/>
<mask id="mask0_165_46" style="mask-type:luminance" maskUnits="userSpaceOnUse" x="31" y="53" width="70" height="63">
<path d="M90.1465 115.384H42.5784C40.4189 115.384 31.1919 71.7894 31.1919 68.9304V58.6613C31.1919 55.8023 32.9489 53.4781 35.1085 53.4781H96.8901C99.0496 53.4781 100.807 55.8023 100.807 58.6613V68.9304C100.807 71.7894 92.306 115.384 90.1465 115.384Z" fill="white"/>
</mask>
<g mask="url(#mask0_165_46)">
<path d="M105.372 57.5333H26.7065V73.7733H105.372V57.5333Z" fill="#846353"/>
</g>
<path d="M102.299 51.4457H29.7006C27.6568 51.4457 26 53.0871 26 55.1118V65.4684C26 67.4932 27.6568 69.1346 29.7006 69.1346H102.299C104.343 69.1346 106 67.4932 106 65.4684V55.1118C106 53.0871 104.343 51.4457 102.299 51.4457Z" fill="#A57E68"/>
</g>
</g>
<defs>
<filter id="filter0_d_165_46" x="15.7321" y="-2.26786" width="100.536" height="127.92" filterUnits="userSpaceOnUse" color-interpolation-filters="sRGB">
<feFlood flood-opacity="0" result="BackgroundImageFix"/>
<feColorMatrix in="SourceAlpha" type="matrix" values="0 0 0 0 0 0 0 0 0 0 0 0 0 0 0 0 0 0 127 0" result="hardAlpha"/>
<feOffset/>
<feGaussianBlur stdDeviation="5.13393"/>
<feColorMatrix type="matrix" values="0 0 0 0 0.384314 0 0 0 0 0.537255 0 0 0 0 0.427451 0 0 0 0.5 0"/>
<feBlend mode="normal" in2="BackgroundImageFix" result="effect1_dropShadow_165_46"/>
<feBlend mode="normal" in="SourceGraphic" in2="effect1_dropShadow_165_46" result="shape"/>
</filter>
<linearGradient id="paint0_linear_165_46" x1="63.5246" y1="54.8754" x2="66.0902" y2="38.1467" gradientUnits="userSpaceOnUse">
<stop stop-color="#92CB4F"/>
<stop offset="0.22" stop-color="#A1D15F"/>
<stop offset="1" stop-color="#D4E697"/>
</linearGradient>
<linearGradient id="paint1_linear_165_46" x1="51.4825" y1="64.3113" x2="51.4825" y2="39.0665" gradientUnits="userSpaceOnUse">
<stop stop-color="#92CB4F"/>
<stop offset="0.22" stop-color="#A1D15F"/>
<stop offset="1" stop-color="#D4E697"/>
</linearGradient>
<linearGradient id="paint2_linear_165_46" x1="75.2743" y1="58.431" x2="84.7567" y2="35.8599" gradientUnits="userSpaceOnUse">
<stop stop-color="#92CB4F"/>
<stop offset="0.22" stop-color="#A1D15F"/>
<stop offset="1" stop-color="#D4E697"/>
</linearGradient>
<linearGradient id="paint3_linear_165_46" x1="64.0733" y1="24.4824" x2="61.6211" y2="-4.82315" gradientUnits="userSpaceOnUse">
<stop offset="0.38" stop-color="#98E6F5"/>
<stop offset="0.57" stop-color="#9AE6F5"/>
<stop offset="0.7" stop-color="#A3E8F5"/>
<stop offset="0.81" stop-color="#B2EBF7"/>
<stop offset="0.91" stop-color="#C7EFF8"/>
<stop offset="1" stop-color="#E2F5FB"/>
</linearGradient>
<linearGradient id="paint4_linear_165_46" x1="63.0914" y1="31.0803" x2="86.1092" y2="18.2808" gradientUnits="userSpaceOnUse">
<stop stop-color="#9CE6F5"/>
<stop offset="0.32" stop-color="#7CD2E4"/>
<stop offset="0.53" stop-color="#A7E8F5"/>
<stop offset="0.71" stop-color="#B6EBF7"/>
<stop offset="0.87" stop-color="#CBF0F9"/>
<stop offset="1" stop-color="#E2F5FB"/>
</linearGradient>
<linearGradient id="paint5_linear_165_46" x1="55.2389" y1="32.0131" x2="71.9309" y2="22.7311" gradientUnits="userSpaceOnUse">
<stop stop-color="#5DC9DF"/>
<stop offset="0.32" stop-color="#72D9EE"/>
<stop offset="0.53" stop-color="#A7E8F5"/>
<stop offset="0.71" stop-color="#B6EBF7"/>
<stop offset="0.9999" stop-color="#CBF0F9"/>
<stop offset="1" stop-color="#E2F5FB"/>
</linearGradient>
<linearGradient id="paint6_linear_165_46" x1="48.932" y1="31.2918" x2="59.3666" y2="25.4894" gradientUnits="userSpaceOnUse">
<stop stop-color="#9CE6F5"/>
<stop stop-color="#72DBF0"/>
<stop offset="0.53" stop-color="#A7E8F5"/>
<stop offset="0.71" stop-color="#B6EBF7"/>
<stop offset="0.87" stop-color="#CBF0F9"/>
<stop offset="1" stop-color="#E2F5FB"/>
</linearGradient>
<clipPath id="clip0_165_46">
<rect width="131" height="131" fill="white"/>
</clipPath>
</defs>
</svg>
