<svg width="115" height="145" viewBox="0 0 115 145" fill="none" xmlns="http://www.w3.org/2000/svg">
<g filter="url(#filter0_d_143_808)">
<path d="M55.7643 65.1189C55.7643 65.1189 55.9491 56.9559 54.2344 47.1193L57.6022 46.2773C57.6022 46.2773 59.3375 62.9421 58.7214 66.9363L55.7643 65.1086V65.1189Z" fill="url(#paint0_linear_143_808)"/>
<path d="M58.1472 67.5112C58.4553 67.1211 58.5785 66.6077 58.445 66.1045C57.0896 60.9501 50.5901 42.7554 26.6968 45.2505C25.7624 45.3429 25.095 46.1952 25.2387 47.1193C26.2347 53.7934 31.5227 77.8407 55.2106 68.959C56.2374 71.6492 57.6236 75.8385 57.1102 77.7894C57.0794 77.892 57.0999 77.9844 57.1512 78.0769C57.4182 78.467 59.441 78.4157 59.8004 78.0461C59.8722 77.9742 59.9236 77.8715 59.9236 77.7688C59.9133 76.7728 59.749 71.3206 58.1472 67.5112Z" fill="url(#paint1_linear_143_808)"/>
<path d="M55.3439 65.4987C56.9046 60.4058 64.1435 42.4884 87.9238 45.9589C88.8479 46.0924 89.4845 46.9652 89.31 47.879C88.006 54.7174 81.3832 79.8429 56.2064 67.4393C55.4877 67.0799 55.1078 66.2687 55.3439 65.4987Z" fill="url(#paint2_linear_143_808)"/>
<g opacity="0.17">
<path d="M50.754 64.9954C50.5281 64.9954 50.3124 64.8928 50.1584 64.7079C42.1392 54.5017 32.5798 52.1812 32.4772 52.1606C32.0665 52.0682 31.82 51.6575 31.9124 51.257C32.0048 50.8566 32.4156 50.5999 32.816 50.6923C33.2267 50.7847 42.9709 53.1361 51.3392 63.7838C51.5959 64.1124 51.5446 64.5847 51.216 64.8414C51.0825 64.9544 50.9182 65.0057 50.754 65.0057V64.9954Z" fill="#3E4D22"/>
</g>
<g opacity="0.17">
<path d="M61.1554 65.7142C61.0528 65.6731 60.9501 65.6115 60.8679 65.5191C60.5804 65.2111 60.601 64.7387 60.909 64.4512C61.3711 64.0302 72.2755 54.0088 82.7077 49.8709C83.0979 49.7169 83.5291 49.9119 83.6831 50.2919C83.8371 50.682 83.642 51.1133 83.2621 51.2673C73.097 55.2923 62.0385 65.4472 61.9255 65.5499C61.7099 65.7552 61.4019 65.7963 61.1452 65.7039L61.1554 65.7142Z" fill="#3E4D22"/>
</g>
<path d="M42.1697 20.8951C43.2273 20.1969 44.6032 20.2482 45.8662 20.3201C46.5541 20.3612 47.355 20.4741 47.6733 21.0799C48.2586 20.1866 48.5769 19.1393 49.193 18.2665C52.1398 14.2415 58.2081 15.9768 60.0872 20.1866C63.0751 17.137 69.0613 18.0817 70.5501 22.1991C70.7041 22.846 70.5706 23.5339 70.4063 24.1808C69.3693 28.1955 66.9461 31.8304 63.6604 34.346C58.2903 38.4429 50.1684 39.7469 44.2952 35.9991C42.026 34.4897 39.7671 31.5326 39.572 28.6987C39.4077 26.4295 40.1675 22.2094 42.18 20.8848L42.1697 20.8951Z" fill="url(#paint3_linear_143_808)"/>
<path d="M58.2184 46.534C58.3519 47.4273 59.2452 47.9304 60.0974 48.0331C62.0175 48.2692 63.7938 47.0371 65.2416 45.7434C68.6403 42.7041 71.5255 38.7715 72.1108 34.2536C72.6242 29.8282 71.0121 23.688 75.5095 20.8951C74.6983 19.8273 73.1171 19.7657 71.8028 20.0121C68.0345 20.7206 64.9233 23.267 63.1264 26.6041C59.584 32.6313 58.1054 39.5929 58.2184 46.534Z" fill="url(#paint4_linear_143_808)"/>
<path d="M51.0207 46.9754C49.2444 45.4044 47.8685 43.4433 46.6158 41.4308C45.5377 39.9933 45.2912 38.2272 45.8457 36.5228C46.8006 32.7647 48.6591 29.3147 50.497 25.9058C50.9386 25.0844 51.4314 24.2116 52.2631 23.7701C53.1975 23.2772 54.3372 23.4518 55.3743 23.6366C57.1814 23.9549 59.1118 24.3451 60.4055 25.6491C61.8944 27.446 62.9622 29.6536 63.7426 31.8509C64.564 35.075 64.5743 38.6277 64.0917 41.9134C63.3832 44.9013 61.0421 47.1294 58.7113 48.9674C56.3292 50.8361 53.0127 48.7415 51.031 46.9857L51.0207 46.9754Z" fill="url(#paint5_linear_143_808)"/>
<path d="M43.515 28.2264C40.64 27.2612 35.1467 25.454 33.5244 29.0067C36.461 30.0335 37.4467 33.3603 38.2579 36.071C39.5311 40.1268 41.5128 44.3161 45.24 46.3491C47.3655 47.4683 49.7784 47.9304 52.0682 48.6594C52.7766 48.8648 53.6186 49.0393 54.1731 48.5567C56.0521 45.9795 55.1177 42.3344 53.6699 39.6237C52.2838 37.0773 50.3124 34.9005 49.1008 32.2616C48.0226 29.9411 45.8458 29.017 43.5253 28.2366L43.515 28.2264Z" fill="url(#paint6_linear_143_808)"/>
<path d="M83.0154 129.375H33.2574C30.9985 129.375 21.3467 83.3441 21.3467 80.3254V69.4825C21.3467 66.4638 23.1846 64.0098 25.4436 64.0098H90.0694C92.3284 64.0098 94.1663 66.4638 94.1663 69.4825V80.3254C94.1663 83.3441 85.2744 129.375 83.0154 129.375Z" fill="#A57E68"/>
<mask id="mask0_143_808" style="mask-type:luminance" maskUnits="userSpaceOnUse" x="21" y="64" width="74" height="66">
<path d="M83.0154 129.375H33.2574C30.9985 129.375 21.3467 83.3441 21.3467 80.3254V69.4825C21.3467 66.4638 23.1846 64.0098 25.4436 64.0098H90.0694C92.3284 64.0098 94.1663 66.4638 94.1663 69.4825V80.3254C94.1663 83.3441 85.2744 129.375 83.0154 129.375Z" fill="white"/>
</mask>
<g mask="url(#mask0_143_808)">
<path d="M98.9414 68.2916H16.6548V85.4389H98.9414V68.2916Z" fill="#846353"/>
</g>
<path d="M95.7276 61.8638H19.7865C17.6486 61.8638 15.9155 63.5969 15.9155 65.7347V76.67C15.9155 78.8079 17.6486 80.541 19.7865 80.541H95.7276C97.8655 80.541 99.5986 78.8079 99.5986 76.67V65.7347C99.5986 63.5969 97.8655 61.8638 95.7276 61.8638Z" fill="#A57E68"/>
</g>
<defs>
<filter id="filter0_d_143_808" x="5.64767" y="5.72274" width="104.219" height="133.92" filterUnits="userSpaceOnUse" color-interpolation-filters="sRGB">
<feFlood flood-opacity="0" result="BackgroundImageFix"/>
<feColorMatrix in="SourceAlpha" type="matrix" values="0 0 0 0 0 0 0 0 0 0 0 0 0 0 0 0 0 0 127 0" result="hardAlpha"/>
<feOffset/>
<feGaussianBlur stdDeviation="5.13393"/>
<feColorMatrix type="matrix" values="0 0 0 0 0.384314 0 0 0 0 0.537255 0 0 0 0 0.427451 0 0 0 0.5 0"/>
<feBlend mode="normal" in2="BackgroundImageFix" result="effect1_dropShadow_143_808"/>
<feBlend mode="normal" in="SourceGraphic" in2="effect1_dropShadow_143_808" result="shape"/>
</filter>
<linearGradient id="paint0_linear_143_808" x1="55.1677" y1="65.4851" x2="57.901" y2="47.8293" gradientUnits="userSpaceOnUse">
<stop stop-color="#92CB4F"/>
<stop offset="0.22" stop-color="#A1D15F"/>
<stop offset="1" stop-color="#D4E697"/>
</linearGradient>
<linearGradient id="paint1_linear_143_808" x1="42.5709" y1="75.4483" x2="42.5709" y2="48.7929" gradientUnits="userSpaceOnUse">
<stop stop-color="#92CB4F"/>
<stop offset="0.22" stop-color="#A1D15F"/>
<stop offset="1" stop-color="#D4E697"/>
</linearGradient>
<linearGradient id="paint2_linear_143_808" x1="67.4585" y1="69.2393" x2="77.5363" y2="45.4745" gradientUnits="userSpaceOnUse">
<stop stop-color="#92CB4F"/>
<stop offset="0.22" stop-color="#A1D15F"/>
<stop offset="1" stop-color="#D4E697"/>
</linearGradient>
<linearGradient id="paint3_linear_143_808" x1="55.742" y1="33.3939" x2="53.1288" y2="2.45503" gradientUnits="userSpaceOnUse">
<stop offset="0.38" stop-color="#98E6F5"/>
<stop offset="0.57" stop-color="#9AE6F5"/>
<stop offset="0.7" stop-color="#A3E8F5"/>
<stop offset="0.81" stop-color="#B2EBF7"/>
<stop offset="0.91" stop-color="#C7EFF8"/>
<stop offset="1" stop-color="#E2F5FB"/>
</linearGradient>
<linearGradient id="paint4_linear_143_808" x1="54.7148" y1="40.3605" x2="78.8982" y2="27.038" gradientUnits="userSpaceOnUse">
<stop stop-color="#9CE6F5"/>
<stop offset="0.32" stop-color="#7CD2E4"/>
<stop offset="0.53" stop-color="#A7E8F5"/>
<stop offset="0.71" stop-color="#B6EBF7"/>
<stop offset="0.87" stop-color="#CBF0F9"/>
<stop offset="1" stop-color="#E2F5FB"/>
</linearGradient>
<linearGradient id="paint5_linear_143_808" x1="46.5005" y1="41.3453" x2="64.0378" y2="31.6842" gradientUnits="userSpaceOnUse">
<stop stop-color="#5DC9DF"/>
<stop offset="0.32" stop-color="#72D9EE"/>
<stop offset="0.53" stop-color="#A7E8F5"/>
<stop offset="0.71" stop-color="#B6EBF7"/>
<stop offset="0.9999" stop-color="#CBF0F9"/>
<stop offset="1" stop-color="#E2F5FB"/>
</linearGradient>
<linearGradient id="paint6_linear_143_808" x1="39.9032" y1="40.5838" x2="50.8662" y2="34.5444" gradientUnits="userSpaceOnUse">
<stop stop-color="#9CE6F5"/>
<stop stop-color="#72DBF0"/>
<stop offset="0.53" stop-color="#A7E8F5"/>
<stop offset="0.71" stop-color="#B6EBF7"/>
<stop offset="0.87" stop-color="#CBF0F9"/>
<stop offset="1" stop-color="#E2F5FB"/>
</linearGradient>
</defs>
</svg>
