<svg width="75" height="64" viewBox="0 0 75 64" fill="none" xmlns="http://www.w3.org/2000/svg">
<g clip-path="url(#clip0_127_254)">
<path opacity="0.51" d="M73.3398 12.7499C74.2198 15.1799 74.6298 18.3299 74.3398 20.8999L74.1798 22.3599C73.8398 25.3799 72.4998 29.1499 71.1198 31.8699C69.0898 35.8699 66.7498 39.0899 63.7998 42.4499C56.8398 50.3799 47.4498 57.3799 38.3798 62.6699C37.5998 63.1199 36.9498 63.1599 36.1598 62.7099C31.9998 60.2999 27.9898 57.6899 24.1698 54.7699L22.2798 53.3299C19.0598 50.8699 15.9998 48.2499 13.2398 45.2699L10.6998 42.5299C10.0998 41.8799 9.54984 41.2499 9.00984 40.5499L6.88984 37.7799C2.82984 32.4599 -0.550162 24.2399 0.0798381 17.3999C0.199838 16.0699 0.569838 14.2399 1.00984 12.9999C1.74984 10.8999 2.80984 8.98989 4.20984 7.23989C5.11984 6.09989 6.14984 5.1399 7.29984 4.2299C11.2198 1.0999 16.1998 -0.330105 21.1898 0.0698949C24.1198 0.309895 27.3598 1.38989 29.8498 2.93989C32.3398 4.48989 34.8198 6.8799 36.2098 9.3499L37.2098 11.1299C37.4898 10.7699 37.5898 10.4299 37.7898 10.0999C38.1998 9.3999 38.6198 8.7199 39.0898 8.0499C40.3998 6.1899 42.6598 4.09989 44.6098 2.94989L45.2598 2.56989C46.3998 1.89989 48.2998 1.07989 49.5498 0.779895L51.2198 0.379895C51.4798 0.319895 51.7798 0.259895 52.0498 0.239895L53.3798 0.0898949C54.6698 -0.0501051 56.3098 0.00989486 57.6298 0.199895C60.3298 0.569895 62.8798 1.47989 65.1998 2.86989C66.6198 3.71989 67.8298 4.7199 68.9998 5.8799C70.8998 7.7599 72.4298 10.2499 73.3398 12.7699V12.7499Z" fill="url(#paint0_linear_127_254)"/>
</g>
<defs>
<linearGradient id="paint0_linear_127_254" x1="37.2098" y1="61.8799" x2="37.2098" y2="-12.5501" gradientUnits="userSpaceOnUse">
<stop stop-color="#FE1A00"/>
<stop offset="0.7" stop-color="#E85223"/>
</linearGradient>
<clipPath id="clip0_127_254">
<rect width="74.43" height="63.03" fill="white"/>
</clipPath>
</defs>
</svg>
