<svg width="33" height="48" viewBox="0 0 33 48" fill="none" xmlns="http://www.w3.org/2000/svg">
<path d="M29.7433 21.5899L17.5633 0.919911C17.3133 0.489911 16.7633 0.0299108 16.2733 -8.92245e-05C15.7933 -0.0200892 15.0833 0.429911 14.8433 0.849911L2.5533 21.7199C-1.7267 28.9899 -0.536702 37.7499 5.4533 43.0099C8.5133 45.6999 12.3633 47.0499 16.2033 47.0499C20.0233 47.0499 23.8433 45.7199 26.8933 43.0499C33.0133 37.6899 34.1633 29.0699 29.7633 21.5899H29.7433ZM24.9233 40.7899C19.9533 45.1499 12.4533 45.1699 7.4733 40.8299C2.4433 36.4499 1.4933 29.3899 5.1033 23.2699L16.1833 4.47991L27.2533 23.2399C30.8633 29.3599 29.9333 36.4099 24.9333 40.7899H24.9233Z" fill="#3E4D22"/>
</svg>
