<svg width="150" height="168" viewBox="0 0 150 168" fill="none" xmlns="http://www.w3.org/2000/svg">
<g filter="url(#filter0_d_143_740)">
<path d="M53.5717 44.1965C53.5717 44.1965 61.4199 65.5849 59.1699 73.2992L64.2859 72.3215C64.2859 72.3215 61.8217 45.7501 57.5895 41.5179C52.2324 36.1608 53.5717 44.1965 53.5717 44.1965Z" fill="#3E4D22"/>
<path d="M88.2455 44.1965C88.2455 44.1965 80.3973 65.5849 82.6473 73.2992L77.5312 72.3215C77.5312 72.3215 79.9955 45.7501 84.2277 41.5179C89.5848 36.1608 88.2455 44.1965 88.2455 44.1965Z" fill="#3E4D22"/>
<path d="M107.826 147.308H42.9244C39.978 147.308 27.3887 87.2678 27.3887 83.3303V69.1875C27.3887 65.25 29.786 62.0491 32.7324 62.0491H117.027C119.973 62.0491 122.371 65.25 122.371 69.1875V83.3303C122.371 87.2678 110.773 147.308 107.826 147.308Z" fill="#A57E68"/>
<mask id="mask0_143_740" style="mask-type:luminance" maskUnits="userSpaceOnUse" x="27" y="62" width="96" height="86">
<path d="M107.826 147.308H42.9244C39.978 147.308 27.3887 87.2678 27.3887 83.3303V69.1875C27.3887 65.25 29.786 62.0491 32.7324 62.0491H117.027C119.973 62.0491 122.371 65.25 122.371 69.1875V83.3303C122.371 87.2678 110.773 147.308 107.826 147.308Z" fill="white"/>
</mask>
<g mask="url(#mask0_143_740)">
<path d="M128.612 67.6475H21.2812V90.0135H128.612V67.6475Z" fill="#846353"/>
</g>
<path d="M124.406 59.2634H25.3528C22.5643 59.2634 20.3037 61.524 20.3037 64.3125V78.5759C20.3037 81.3645 22.5643 83.625 25.3528 83.625H124.406C127.195 83.625 129.455 81.3645 129.455 78.5759V64.3125C129.455 61.524 127.195 59.2634 124.406 59.2634Z" fill="#A57E68"/>
<path d="M58.272 80.3572C58.6604 80.5313 58.7274 81.2679 58.4327 81.5492C58.4327 83.3438 58.2586 85.125 57.589 86.8795C57.3613 87.4956 56.9194 87.9509 56.2765 88.259C53.2765 89.6786 50.2899 90.9509 47.156 92.0893C44.0086 93.3884 41.4908 94.5268 38.9863 96.7634C37.6336 95.009 36.2944 93.4018 34.5667 92.0492C34.0845 91.6742 33.589 91.3795 33.1872 90.9242C32.6113 90.6563 32.2363 90.2411 31.7408 89.8661C28.4997 87.375 26.6247 83.3438 29.0622 79.6875C30.4819 77.5581 32.531 75.9242 35.0086 74.8929L39.0801 73.192C42.3881 71.8125 44.8658 69.6697 44.531 66.1206C44.3836 64.5536 43.2051 63.4822 41.464 63.2813C39.1069 63 36.7095 63.4286 34.4863 64.4599C29.7452 66.6429 25.5667 69.8706 22.0711 73.6742C21.8569 71.759 22.1783 69.9777 22.6069 68.1295C23.8256 62.8393 27.3747 58.4331 33.6694 58.0045C39.1336 57.6295 45.214 59.9733 48.6961 56.4375C49.8613 55.259 50.4372 53.7456 50.2095 52.2188C49.9819 50.692 49.0042 49.3661 47.5042 48.6027C43.2452 46.4063 37.3658 47.009 32.839 48.442C32.5042 48.5492 32.2229 48.6965 31.8345 48.7099C32.0354 48.1608 32.4104 47.7188 32.7988 47.2233C34.272 45.2947 35.7854 43.4867 37.6604 41.8661C42.1738 37.9554 47.8926 35.4777 53.9461 37.6875C57.4952 38.9733 59.3033 43.0849 58.1783 46.4733C57.8702 47.4242 57.4149 48.2009 56.906 49.0447L52.4997 56.25C48.2944 63.1206 44.1158 75.6161 42.2944 83.3438L42.0533 84.3884C41.8792 85.1518 41.8524 85.9152 41.7854 86.692C41.7185 87.5224 42.281 88.2456 43.1649 88.3259C44.6783 88.4599 44.8256 85.9152 45.0935 84.75C45.6158 82.4733 46.2586 80.3304 47.0354 78.1072L49.5667 70.9152C49.6604 70.6608 49.9417 70.567 50.2095 70.6742C54.214 72.3617 57.8836 76.6072 58.272 80.3974V80.3572Z" fill="url(#paint0_linear_143_740)"/>
<path d="M59.973 62.7457C61.3926 65.0493 63.9105 66.4288 65.973 68.4511C69.1069 71.5448 70.54 75.8707 67.8748 79.768C66.4284 81.8707 64.0846 83.5984 61.7141 85.1252C63.0266 77.3707 58.4328 70.6475 50.9194 67.4332C52.2051 63.9779 53.8926 60.7904 55.7409 57.5761C57.2409 54.9779 58.7676 52.527 60.4685 50.0225C62.0623 48.4957 63.8569 47.21 65.9462 46.2993C68.3168 45.2547 70.8882 45.3082 73.2051 46.3395C76.0712 47.6252 78.1471 49.9154 79.1248 52.7279C81.0266 58.1922 79.9685 63.777 77.223 69.0002C76.2051 66.71 75.6293 64.6877 74.1293 62.4645C72.415 59.9332 70.1114 57.8038 67.098 56.652C65.6516 56.0895 64.1516 55.8618 62.6248 56.1297C60.9373 56.4243 59.7051 57.5091 59.3034 59.0225C58.9551 60.3216 59.2766 61.6073 59.973 62.7457Z" fill="url(#paint1_linear_143_740)"/>
<path d="M91.2454 64.9421C90.8838 65.1564 90.8838 65.893 91.1918 66.1341C91.3526 67.9153 91.6874 69.6832 92.5177 71.3573C92.8124 71.9466 93.2811 72.3618 93.9508 72.6162C97.0713 73.7546 100.165 74.7457 103.393 75.5894C106.647 76.6073 109.259 77.4912 111.951 79.5002C113.129 77.6385 114.321 75.9109 115.928 74.3975C116.37 73.9823 116.853 73.6341 117.201 73.1519C117.75 72.8305 118.085 72.3885 118.54 71.9734C121.54 69.1877 123.04 65.0091 120.281 61.5939C118.674 59.6118 116.491 58.1653 113.92 57.3618L109.701 56.0359C106.286 54.9644 103.62 53.0627 103.634 49.5002C103.634 47.9198 104.719 46.7546 106.433 46.393C108.75 45.8975 111.187 46.1118 113.491 46.9287C118.406 48.6698 122.866 51.4957 126.696 54.9644C126.736 53.0359 126.254 51.2948 125.665 49.4868C123.964 44.3305 120.027 40.2725 113.719 40.4198C108.254 40.5403 102.402 43.4332 98.5981 40.2323C97.3392 39.1609 96.616 37.7144 96.7097 36.1743C96.8035 34.6341 97.6606 33.2278 99.0669 32.3305C103.111 29.7591 109.018 29.8127 113.665 30.8305C114.013 30.9109 114.295 31.018 114.683 31.0046C114.428 30.4823 114.013 30.0671 113.585 29.6118C111.937 27.8305 110.263 26.1564 108.254 24.7234C103.406 21.2546 97.4865 19.2993 91.6606 22.0448C88.2454 23.6519 86.8124 27.9109 88.2454 31.1787C88.6472 32.0894 89.1561 32.826 89.7588 33.6296L94.8079 40.393C99.616 46.8484 104.933 58.9153 107.451 66.4287L107.786 67.4466C108.027 68.1832 108.12 68.9466 108.254 69.71C108.402 70.5269 107.906 71.3037 107.022 71.4644C105.522 71.7457 105.147 69.2144 104.786 68.0894C104.062 65.8796 103.219 63.7903 102.241 61.6609L99.0535 54.7234C98.9329 54.4689 98.6517 54.4019 98.3972 54.5359C94.5669 56.585 91.2856 61.1385 91.2588 64.9555L91.2454 64.9421Z" fill="url(#paint2_linear_143_740)"/>
<path d="M87.9374 47.558C86.7454 49.9821 84.3481 51.5893 82.4865 53.7991C79.6472 57.1607 78.6159 61.6071 81.6293 65.25C83.2633 67.2187 85.7543 68.7187 88.2588 70.0312C86.2365 62.4241 90.2008 55.3125 97.3927 51.4286C95.7856 48.1071 93.8168 45.0804 91.6874 42.067C89.9463 39.6161 88.2186 37.3125 86.29 34.9687C84.5624 33.5893 82.6472 32.4777 80.4909 31.7545C78.0266 30.9375 75.482 31.2187 73.2588 32.4509C70.5133 33.9911 68.665 36.4553 67.9552 39.3482C66.5624 44.9732 68.1293 50.4241 71.3302 55.3795C72.1338 52.9955 72.5222 50.9464 73.8213 48.5893C75.2945 45.9107 77.3972 43.5804 80.29 42.1607C81.6829 41.4777 83.1561 41.1027 84.6963 41.2366C86.3972 41.3705 87.7231 42.3482 88.2722 43.808C88.7409 45.067 88.54 46.3795 87.9508 47.5848L87.9374 47.558Z" fill="url(#paint3_linear_143_740)"/>
</g>
<defs>
<filter id="filter0_d_143_740" x="6.91085" y="7.35507" width="135.938" height="153.346" filterUnits="userSpaceOnUse" color-interpolation-filters="sRGB">
<feFlood flood-opacity="0" result="BackgroundImageFix"/>
<feColorMatrix in="SourceAlpha" type="matrix" values="0 0 0 0 0 0 0 0 0 0 0 0 0 0 0 0 0 0 127 0" result="hardAlpha"/>
<feOffset/>
<feGaussianBlur stdDeviation="6.69643"/>
<feColorMatrix type="matrix" values="0 0 0 0 0.384314 0 0 0 0 0.537255 0 0 0 0 0.427451 0 0 0 0.5 0"/>
<feBlend mode="normal" in2="BackgroundImageFix" result="effect1_dropShadow_143_740"/>
<feBlend mode="normal" in="SourceGraphic" in2="effect1_dropShadow_143_740" result="shape"/>
</filter>
<linearGradient id="paint0_linear_143_740" x1="18.3149" y1="76.8928" x2="60.8395" y2="59.4001" gradientUnits="userSpaceOnUse">
<stop stop-color="#92CB4F"/>
<stop offset="0.22" stop-color="#A1D15F"/>
<stop offset="1" stop-color="#D4E697"/>
</linearGradient>
<linearGradient id="paint1_linear_143_740" x1="47.4727" y1="72.493" x2="76.828" y2="60.4176" gradientUnits="userSpaceOnUse">
<stop stop-color="#92CB4F"/>
<stop offset="0.22" stop-color="#A1D15F"/>
<stop offset="1" stop-color="#D4E697"/>
</linearGradient>
<linearGradient id="paint2_linear_143_740" x1="126.394" y1="56.4742" x2="82.4345" y2="42.9421" gradientUnits="userSpaceOnUse">
<stop stop-color="#92CB4F"/>
<stop offset="0.22" stop-color="#A1D15F"/>
<stop offset="1" stop-color="#D4E697"/>
</linearGradient>
<linearGradient id="paint3_linear_143_740" x1="96.9397" y1="54.7684" x2="66.6027" y2="45.4297" gradientUnits="userSpaceOnUse">
<stop stop-color="#92CB4F"/>
<stop offset="0.22" stop-color="#A1D15F"/>
<stop offset="1" stop-color="#D4E697"/>
</linearGradient>
</defs>
</svg>
