<svg width="131" height="131" viewBox="0 0 131 131" fill="none" xmlns="http://www.w3.org/2000/svg">
<g clip-path="url(#clip0_165_24)">
<g filter="url(#filter0_d_165_24)">
<path d="M50.1718 40.3164C50.1718 40.3164 55.9104 55.9556 54.2652 61.5963L58.0061 60.8814C58.0061 60.8814 56.2042 41.4524 53.1097 38.3579C49.1925 34.4407 50.1718 40.3164 50.1718 40.3164Z" fill="#3E4D22"/>
<path d="M75.5252 40.3164C75.5252 40.3164 69.7866 55.9556 71.4318 61.5963L67.6909 60.8814C67.6909 60.8814 69.4928 41.4524 72.5873 38.3579C76.5045 34.4407 75.5252 40.3164 75.5252 40.3164Z" fill="#3E4D22"/>
<path d="M89.8423 115.712H42.3861C40.2317 115.712 31.0264 71.8102 31.0264 68.9311V58.5898C31.0264 55.7107 32.7793 53.3702 34.9337 53.3702H96.5699C98.7244 53.3702 100.477 55.7107 100.477 58.5898V68.9311C100.477 71.8102 91.9967 115.712 89.8423 115.712Z" fill="#A57E68"/>
<mask id="mask0_165_24" style="mask-type:luminance" maskUnits="userSpaceOnUse" x="31" y="53" width="70" height="63">
<path d="M89.8423 115.712H42.3861C40.2317 115.712 31.0264 71.8102 31.0264 68.9311V58.5898C31.0264 55.7107 32.7793 53.3702 34.9337 53.3702H96.5699C98.7244 53.3702 100.477 55.7107 100.477 58.5898V68.9311C100.477 71.8102 91.9967 115.712 89.8423 115.712Z" fill="white"/>
</mask>
<g mask="url(#mask0_165_24)">
<path d="M105.041 57.4639H26.561V73.8179H105.041V57.4639Z" fill="#846353"/>
</g>
<path d="M101.966 51.3334H29.5381C27.4991 51.3334 25.8462 52.9863 25.8462 55.0253V65.4547C25.8462 67.4937 27.4991 69.1466 29.5381 69.1466H101.966C104.005 69.1466 105.658 67.4937 105.658 65.4547V55.0253C105.658 52.9863 104.005 51.3334 101.966 51.3334Z" fill="#A57E68"/>
<path d="M53.6083 66.7572C53.8923 66.8845 53.9413 67.4231 53.7259 67.6288C53.7259 68.941 53.5986 70.2435 53.1089 71.5263C52.9424 71.9768 52.6193 72.3097 52.1492 72.535C49.9556 73.573 47.7718 74.5033 45.4803 75.3357C43.179 76.2856 41.3379 77.118 39.5066 78.7534C38.5176 77.4706 37.5383 76.2954 36.275 75.3064C35.9224 75.0322 35.5601 74.8167 35.2663 74.4838C34.8452 74.2879 34.571 73.9843 34.2087 73.7101C31.8388 71.8886 30.4678 68.941 32.2501 66.2675C33.2882 64.7105 34.7865 63.5158 36.5982 62.7617L39.5752 61.518C41.994 60.5094 43.8057 58.9425 43.5609 56.3474C43.4532 55.2016 42.5914 54.4182 41.3183 54.2713C39.5948 54.0657 37.8418 54.379 36.2162 55.1331C32.7496 56.7293 29.6942 59.0894 27.1383 61.8706C26.9816 60.4702 27.2166 59.1677 27.53 57.8163C28.4211 53.9481 31.0162 50.7263 35.6189 50.4129C39.6144 50.1387 44.0603 51.8525 46.6065 49.2671C47.4584 48.4054 47.8795 47.2988 47.713 46.1824C47.5466 45.066 46.8317 44.0965 45.7349 43.5383C42.6208 41.9323 38.3217 42.373 35.0117 43.4208C34.7669 43.4992 34.5612 43.6069 34.2772 43.6167C34.4241 43.2152 34.6983 42.892 34.9823 42.5297C36.0595 41.1195 37.1661 39.7975 38.5371 38.6125C41.8373 35.753 46.0189 33.9413 50.4453 35.5572C53.0404 36.4973 54.3624 39.5037 53.5398 41.9813C53.3146 42.6766 52.9816 43.2445 52.6095 43.8615L49.3876 49.13C46.3127 54.1538 43.2573 63.2905 41.9255 68.941L41.7492 69.7048C41.6219 70.263 41.6023 70.8212 41.5533 71.3892C41.5044 71.9964 41.9157 72.5252 42.562 72.5839C43.6686 72.6819 43.7763 70.8212 43.9722 69.9692C44.3541 68.3045 44.8242 66.7376 45.3921 65.112L47.243 59.8532C47.3115 59.6672 47.5172 59.5986 47.713 59.677C50.6411 60.9109 53.3244 64.0152 53.6083 66.7866V66.7572Z" fill="url(#paint0_linear_165_24)"/>
<path d="M54.8524 53.8796C55.8904 55.564 57.7315 56.5727 59.2396 58.0514C61.5311 60.3135 62.579 63.4766 60.6302 66.3264C59.5725 67.8638 57.8588 69.1271 56.1255 70.2435C57.0852 64.5734 53.7262 59.6574 48.2324 57.3071C49.1725 54.7806 50.4064 52.4499 51.7578 50.0996C52.8546 48.1998 53.971 46.4077 55.2147 44.5764C56.3801 43.46 57.6923 42.5199 59.22 41.854C60.9533 41.0902 62.8336 41.1293 64.5277 41.8834C66.6234 42.8235 68.1413 44.4981 68.8562 46.5546C70.2468 50.5501 69.4731 54.6337 67.4656 58.4529C66.7213 56.7783 66.3002 55.2996 65.2034 53.674C63.95 51.8231 62.2656 50.2661 60.0622 49.4239C59.0046 49.0126 57.9078 48.8461 56.7914 49.042C55.5575 49.2574 54.6565 50.0506 54.3627 51.1572C54.1081 52.1071 54.3432 53.0472 54.8524 53.8796Z" fill="url(#paint1_linear_165_24)"/>
<path d="M77.7189 55.4857C77.4544 55.6424 77.4544 56.181 77.6797 56.3573C77.7972 57.6597 78.042 58.9524 78.6492 60.1765C78.8646 60.6074 79.2074 60.9109 79.697 61.097C81.9787 61.9294 84.2409 62.6541 86.601 63.271C88.9806 64.0153 90.8902 64.6616 92.8586 66.1305C93.7204 64.7693 94.5919 63.506 95.7671 62.3994C96.0902 62.0959 96.4428 61.8413 96.6974 61.4887C97.0989 61.2537 97.3437 60.9305 97.6767 60.6269C99.8703 58.59 100.967 55.5347 98.9498 53.0375C97.7746 51.5881 96.1784 50.5305 94.2982 49.9429L91.2134 48.9734C88.7162 48.19 86.7674 46.7994 86.7772 44.1945C86.7772 43.039 87.5705 42.187 88.824 41.9226C90.5181 41.5602 92.3004 41.7169 93.9848 42.3143C97.5788 43.5874 100.84 45.6537 103.641 48.19C103.67 46.7798 103.317 45.5068 102.886 44.1847C101.643 40.4145 98.7637 37.4472 94.1513 37.555C90.1558 37.6431 85.8763 39.7584 83.0951 37.4179C82.1746 36.6344 81.6458 35.5768 81.7143 34.4506C81.7829 33.3245 82.4096 32.2962 83.4379 31.6401C86.3953 29.7599 90.714 29.799 94.1121 30.5433C94.3667 30.602 94.5724 30.6804 94.8563 30.6706C94.6703 30.2887 94.3667 29.9851 94.0533 29.6521C92.8488 28.3497 91.6247 27.1256 90.1558 26.0777C86.6108 23.5414 82.2823 22.1116 78.0224 24.1192C75.5253 25.2943 74.4774 28.4084 75.5253 30.7979C75.819 31.4638 76.1912 32.0024 76.6318 32.59L80.3238 37.5354C83.8394 42.2555 87.7272 51.0789 89.5682 56.5727L89.813 57.317C89.9893 57.8556 90.0579 58.4138 90.1558 58.9719C90.2635 59.5693 89.9012 60.1373 89.2548 60.2548C88.158 60.4605 87.8838 58.6096 87.6194 57.787C87.0906 56.1712 86.4737 54.6435 85.7588 53.0864L83.4281 48.0137C83.34 47.8277 83.1343 47.7787 82.9482 47.8766C80.1475 49.375 77.7482 52.7045 77.7286 55.4955L77.7189 55.4857Z" fill="url(#paint2_linear_165_24)"/>
<path d="M75.2996 42.7744C74.428 44.5469 72.6751 45.722 71.3139 47.3378C69.2378 49.7959 68.4837 53.0471 70.6871 55.7107C71.8819 57.1503 73.7033 58.2471 75.5346 59.2068C74.0559 53.6445 76.9546 48.4444 82.2133 45.6045C81.0382 43.1759 79.5986 40.9627 78.0416 38.7593C76.7685 36.9672 75.5052 35.2828 74.0951 33.5691C72.8318 32.5604 71.4314 31.7476 69.8547 31.2188C68.0529 30.6214 66.1922 30.8271 64.5666 31.728C62.5591 32.8542 61.2077 34.6561 60.6886 36.7714C59.6702 40.8844 60.8159 44.87 63.1564 48.4934C63.744 46.7503 64.028 45.252 64.9779 43.5284C66.0551 41.5699 67.5926 39.8659 69.7079 38.8279C70.7263 38.3284 71.8035 38.0542 72.9297 38.1522C74.1734 38.2501 75.1429 38.965 75.5444 40.0324C75.8871 40.9529 75.7403 41.9126 75.3094 42.794L75.2996 42.7744Z" fill="url(#paint3_linear_165_24)"/>
</g>
</g>
<defs>
<filter id="filter0_d_165_24" x="16.0533" y="13.378" width="99.3977" height="112.126" filterUnits="userSpaceOnUse" color-interpolation-filters="sRGB">
<feFlood flood-opacity="0" result="BackgroundImageFix"/>
<feColorMatrix in="SourceAlpha" type="matrix" values="0 0 0 0 0 0 0 0 0 0 0 0 0 0 0 0 0 0 127 0" result="hardAlpha"/>
<feOffset/>
<feGaussianBlur stdDeviation="4.89643"/>
<feColorMatrix type="matrix" values="0 0 0 0 0.384314 0 0 0 0 0.537255 0 0 0 0 0.427451 0 0 0 0.5 0"/>
<feBlend mode="normal" in2="BackgroundImageFix" result="effect1_dropShadow_165_24"/>
<feBlend mode="normal" in="SourceGraphic" in2="effect1_dropShadow_165_24" result="shape"/>
</filter>
<linearGradient id="paint0_linear_165_24" x1="24.3917" y1="64.224" x2="55.4857" y2="51.4334" gradientUnits="userSpaceOnUse">
<stop stop-color="#92CB4F"/>
<stop offset="0.22" stop-color="#A1D15F"/>
<stop offset="1" stop-color="#D4E697"/>
</linearGradient>
<linearGradient id="paint1_linear_165_24" x1="45.7122" y1="61.0068" x2="67.1767" y2="52.1773" gradientUnits="userSpaceOnUse">
<stop stop-color="#92CB4F"/>
<stop offset="0.22" stop-color="#A1D15F"/>
<stop offset="1" stop-color="#D4E697"/>
</linearGradient>
<linearGradient id="paint2_linear_165_24" x1="103.42" y1="49.2939" x2="71.2763" y2="39.3992" gradientUnits="userSpaceOnUse">
<stop stop-color="#92CB4F"/>
<stop offset="0.22" stop-color="#A1D15F"/>
<stop offset="1" stop-color="#D4E697"/>
</linearGradient>
<linearGradient id="paint3_linear_165_24" x1="81.8821" y1="48.0466" x2="59.6996" y2="41.2181" gradientUnits="userSpaceOnUse">
<stop stop-color="#92CB4F"/>
<stop offset="0.22" stop-color="#A1D15F"/>
<stop offset="1" stop-color="#D4E697"/>
</linearGradient>
<clipPath id="clip0_165_24">
<rect width="93" height="116.445" fill="white" transform="translate(19 8)"/>
</clipPath>
</defs>
</svg>
