<svg width="43" height="43" viewBox="0 0 43 43" fill="none" xmlns="http://www.w3.org/2000/svg">
<g clip-path="url(#clip0_72_53)">
<path d="M20.5697 10.2299C26.7397 9.9499 31.6097 14.7599 31.8997 20.5199C32.1897 26.2799 27.5297 31.5899 21.6397 31.8999C15.7497 32.2099 10.5497 27.6099 10.2197 21.6799C9.88974 15.7599 14.3697 10.5099 20.5697 10.2299ZM20.0697 14.1199C15.9897 14.6999 13.4997 18.4699 14.1397 22.2399C14.7797 26.0099 18.2797 28.5199 22.0097 28.0099C25.8497 27.4799 28.5497 23.9199 28.0097 20.0899C27.4697 16.2599 24.0797 13.5499 20.0797 14.1199H20.0697Z" fill="#3E4D22"/>
<path d="M22.9797 40.0198C22.9897 41.2998 22.1597 42.0598 21.1597 42.1098C20.0697 42.1698 19.1297 41.3498 19.1397 40.1298V37.6798C19.1497 36.5698 19.9997 35.7998 20.9397 35.7498C22.0197 35.6898 22.9497 36.4798 22.9597 37.6798L22.9797 40.0198Z" fill="#3E4D22"/>
<path d="M34.1899 10.6298C33.3799 11.4398 32.2299 11.3698 31.5199 10.7398C30.8099 10.1098 30.5999 8.81977 31.4099 8.00977L33.3699 6.05977C34.1099 5.31977 35.4099 5.54977 36.0099 6.21977C36.6599 6.93977 36.6899 8.12977 35.9399 8.87977L34.1899 10.6298Z" fill="#3E4D22"/>
<path d="M40.7201 22.9999L37.4201 22.9499C36.5201 22.9399 35.7901 21.9699 35.7501 21.1999C35.7001 20.2799 36.2801 19.5599 37.1701 19.1399L40.5901 19.1999C41.4401 19.2099 42.1001 20.2799 42.1201 20.9499C42.1501 21.8299 41.6101 22.5599 40.7201 22.9999Z" fill="#3E4D22"/>
<path d="M35.91 33.2C36.72 34 36.67 35.17 36.01 35.91C35.35 36.65 34.07 36.78 33.28 35.99L31.45 34.15C30.7 33.4 30.77 32.22 31.39 31.53C32.09 30.75 33.35 30.64 34.16 31.45L35.92 33.2H35.91Z" fill="#3E4D22"/>
<path d="M10.6498 7.94985C11.4798 8.76985 11.3498 9.92985 10.7198 10.6199C10.0398 11.3599 8.7898 11.4999 7.9898 10.6899L6.1598 8.86985C5.4098 8.12985 5.4698 6.91985 6.0998 6.21985C6.7298 5.51985 8.0098 5.32985 8.7598 6.06985L10.6498 7.93985V7.94985Z" fill="#3E4D22"/>
<path d="M4.44983 22.9699H1.99983C0.859835 22.9899 0.0698348 22.1599 -0.000165185 21.1999C-0.0801652 20.0399 0.769835 19.1699 1.99983 19.1599L4.21983 19.1399C5.40983 19.1399 6.29983 19.8499 6.34983 20.9799C6.38983 21.9699 5.61984 22.9599 4.43984 22.9699H4.44983Z" fill="#3E4D22"/>
<path d="M8.93965 35.8999C8.12965 36.7199 6.94965 36.6699 6.22965 36.0299C5.50965 35.3899 5.34965 34.0699 6.15965 33.2699L7.99965 31.4399C8.73965 30.6999 9.93965 30.7599 10.6196 31.3999C11.3696 32.0999 11.4896 33.3399 10.6896 34.1499L8.94965 35.8999H8.93965Z" fill="#3E4D22"/>
<path d="M22.97 4.36988C22.97 5.56988 22.1 6.30988 21.16 6.36988C20.15 6.42988 19.16 5.61988 19.16 4.47988V2.02988C19.14 0.869884 19.95 0.0698836 20.94 0.00988361C22.08 -0.0601164 22.98 0.789884 22.98 2.02988V4.37988L22.97 4.36988Z" fill="#3E4D22"/>
</g>
<defs>
<clipPath id="clip0_72_53">
<rect width="42.12" height="42.12" fill="white"/>
</clipPath>
</defs>
</svg>
