<svg width="351" height="64" viewBox="0 0 351 64" fill="none" xmlns="http://www.w3.org/2000/svg">
<g filter="url(#filter0_d_27_355)">
<path d="M48.4815 26.356H41.8349C38.2942 26.356 35.4238 29.2262 35.4238 32.7669V51.6825C35.4238 55.2232 38.2942 58.0935 41.8349 58.0935H48.4815C52.0221 58.0935 54.8925 55.2232 54.8925 51.6825V32.7669C54.8925 29.2262 52.0221 26.356 48.4815 26.356Z" fill="#E5A37A"/>
<path d="M48.4815 26.356H41.8349C38.2942 26.356 35.4238 29.2262 35.4238 32.7669V51.6825C35.4238 55.2232 38.2942 58.0935 41.8349 58.0935H48.4815C52.0221 58.0935 54.8925 55.2232 54.8925 51.6825V32.7669C54.8925 29.2262 52.0221 26.356 48.4815 26.356Z" stroke="#C58C64" stroke-width="3" stroke-miterlimit="10"/>
</g>
<g filter="url(#filter1_d_27_355)">
<path d="M315.077 26.356H308.431C304.89 26.356 302.02 29.2262 302.02 32.7669V51.6825C302.02 55.2232 304.89 58.0935 308.431 58.0935H315.077C318.618 58.0935 321.488 55.2232 321.488 51.6825V32.7669C321.488 29.2262 318.618 26.356 315.077 26.356Z" fill="#E5A37A"/>
<path d="M315.077 26.356H308.431C304.89 26.356 302.02 29.2262 302.02 32.7669V51.6825C302.02 55.2232 304.89 58.0935 308.431 58.0935H315.077C318.618 58.0935 321.488 55.2232 321.488 51.6825V32.7669C321.488 29.2262 318.618 26.356 315.077 26.356Z" stroke="#C58C64" stroke-width="3" stroke-miterlimit="10"/>
</g>
<g filter="url(#filter2_d_27_355)">
<path d="M334.899 5.5H15.2389C9.86024 5.5 5.5 9.86024 5.5 15.2389V27.4986C5.5 32.8773 9.86024 37.2375 15.2389 37.2375H334.899C340.278 37.2375 344.638 32.8773 344.638 27.4986V15.2389C344.638 9.86024 340.278 5.5 334.899 5.5Z" fill="#E5A37A"/>
<path d="M334.899 5.5H15.2389C9.86024 5.5 5.5 9.86024 5.5 15.2389V27.4986C5.5 32.8773 9.86024 37.2375 15.2389 37.2375H334.899C340.278 37.2375 344.638 32.8773 344.638 27.4986V15.2389C344.638 9.86024 340.278 5.5 334.899 5.5Z" stroke="#C58C64" stroke-width="3" stroke-miterlimit="10"/>
</g>
<defs>
<filter id="filter0_d_27_355" x="29.9238" y="20.856" width="30.4688" height="42.7375" filterUnits="userSpaceOnUse" color-interpolation-filters="sRGB">
<feFlood flood-opacity="0" result="BackgroundImageFix"/>
<feColorMatrix in="SourceAlpha" type="matrix" values="0 0 0 0 0 0 0 0 0 0 0 0 0 0 0 0 0 0 127 0" result="hardAlpha"/>
<feOffset/>
<feGaussianBlur stdDeviation="2"/>
<feComposite in2="hardAlpha" operator="out"/>
<feColorMatrix type="matrix" values="0 0 0 0 0 0 0 0 0 0 0 0 0 0 0 0 0 0 0.25 0"/>
<feBlend mode="normal" in2="BackgroundImageFix" result="effect1_dropShadow_27_355"/>
<feBlend mode="normal" in="SourceGraphic" in2="effect1_dropShadow_27_355" result="shape"/>
</filter>
<filter id="filter1_d_27_355" x="296.52" y="20.856" width="30.4688" height="42.7375" filterUnits="userSpaceOnUse" color-interpolation-filters="sRGB">
<feFlood flood-opacity="0" result="BackgroundImageFix"/>
<feColorMatrix in="SourceAlpha" type="matrix" values="0 0 0 0 0 0 0 0 0 0 0 0 0 0 0 0 0 0 127 0" result="hardAlpha"/>
<feOffset/>
<feGaussianBlur stdDeviation="2"/>
<feComposite in2="hardAlpha" operator="out"/>
<feColorMatrix type="matrix" values="0 0 0 0 0 0 0 0 0 0 0 0 0 0 0 0 0 0 0.25 0"/>
<feBlend mode="normal" in2="BackgroundImageFix" result="effect1_dropShadow_27_355"/>
<feBlend mode="normal" in="SourceGraphic" in2="effect1_dropShadow_27_355" result="shape"/>
</filter>
<filter id="filter2_d_27_355" x="0" y="0" width="350.138" height="42.7375" filterUnits="userSpaceOnUse" color-interpolation-filters="sRGB">
<feFlood flood-opacity="0" result="BackgroundImageFix"/>
<feColorMatrix in="SourceAlpha" type="matrix" values="0 0 0 0 0 0 0 0 0 0 0 0 0 0 0 0 0 0 127 0" result="hardAlpha"/>
<feOffset/>
<feGaussianBlur stdDeviation="2"/>
<feComposite in2="hardAlpha" operator="out"/>
<feColorMatrix type="matrix" values="0 0 0 0 0 0 0 0 0 0 0 0 0 0 0 0 0 0 0.25 0"/>
<feBlend mode="normal" in2="BackgroundImageFix" result="effect1_dropShadow_27_355"/>
<feBlend mode="normal" in="SourceGraphic" in2="effect1_dropShadow_27_355" result="shape"/>
</filter>
</defs>
</svg>
