<svg width="131" height="131" viewBox="0 0 131 131" fill="none" xmlns="http://www.w3.org/2000/svg">
<g filter="url(#filter0_d_165_2)">
<path d="M68.5988 12.7054H64.5114C52.3999 12.7054 42.5815 22.5279 42.5815 34.6446V52.7741C42.5815 64.8907 52.3999 74.7132 64.5114 74.7132H68.5988C80.7103 74.7132 90.5286 64.8907 90.5286 52.7741V34.6446C90.5286 22.5279 80.7103 12.7054 68.5988 12.7054Z" fill="url(#paint0_linear_165_2)"/>
<path d="M44.3223 43.7012H38.5025C38.1719 43.7012 37.9038 43.9694 37.9038 44.3002V44.8592C37.9038 45.19 38.1719 45.4582 38.5025 45.4582H44.3223C44.653 45.4582 44.921 45.19 44.921 44.8592V44.3002C44.921 43.9694 44.653 43.7012 44.3223 43.7012Z" fill="#3E4D22"/>
<path d="M94.6084 37.8551H88.7887C88.458 37.8551 88.1899 38.1233 88.1899 38.4541V39.0132C88.1899 39.344 88.458 39.6122 88.7887 39.6122H94.6084C94.9391 39.6122 95.2072 39.344 95.2072 39.0132V38.4541C95.2072 38.1233 94.9391 37.8551 94.6084 37.8551Z" fill="#3E4D22"/>
<path d="M44.4504 40.1756L38.8691 38.5259C38.552 38.4322 38.219 38.6134 38.1253 38.9306L37.9669 39.4668C37.8732 39.7841 38.0544 40.1172 38.3715 40.211L43.9527 41.8607C44.2698 41.9544 44.6029 41.7732 44.6966 41.4559L44.8549 40.9198C44.9486 40.6025 44.7675 40.2694 44.4504 40.1756Z" fill="#3E4D22"/>
<path d="M55.324 16.5409L52.4141 11.4987C52.2488 11.2122 51.8826 11.1141 51.5962 11.2795L51.1123 11.559C50.8259 11.7244 50.7278 12.0908 50.8931 12.3772L53.803 17.4194C53.9683 17.7059 54.3345 17.8041 54.6209 17.6387L55.1048 17.3591C55.3912 17.1937 55.4893 16.8274 55.324 16.5409Z" fill="#3E4D22"/>
<path d="M84.4568 21.9453L87.7255 18.3991C87.9108 18.198 87.8981 17.8847 87.6972 17.6994L87.3568 17.3853C87.1558 17.2 86.8427 17.2126 86.6574 17.4137L83.3886 20.96C83.2033 21.161 83.216 21.4743 83.417 21.6597L83.7574 21.9737C83.9583 22.1591 84.2714 22.1464 84.4568 21.9453Z" fill="#3E4D22"/>
<path d="M86.0369 24.72L90.588 23.1265C90.846 23.0361 90.982 22.7536 90.8917 22.4955L90.7387 22.0583C90.6484 21.8002 90.366 21.6642 90.108 21.7545L85.5569 23.3481C85.2989 23.4384 85.1629 23.7209 85.2532 23.979L85.4062 24.4162C85.4965 24.6744 85.7788 24.8104 86.0369 24.72Z" fill="#3E4D22"/>
<path opacity="0.17" d="M63.0509 20.3086C63.0509 20.3086 51.3555 26.1548 57.2072 58.9157" stroke="#3E4D22" stroke-width="0.781513" stroke-miterlimit="10" stroke-linecap="round"/>
<path opacity="0.17" d="M71.21 20.3086C71.21 20.3086 82.9293 26.1548 77.0776 58.9157" stroke="#3E4D22" stroke-width="0.781513" stroke-miterlimit="10" stroke-linecap="round"/>
<path d="M90.9124 115.812H43.2128C41.0414 115.812 31.7969 71.6622 31.7969 68.7711V58.3725C31.7969 55.4734 33.5532 53.1254 35.7246 53.1254H97.6902C99.8616 53.1254 101.618 55.4734 101.618 58.3725V68.7711C101.618 71.6702 93.0918 115.812 90.9284 115.812H90.9124Z" fill="#A57E68"/>
<mask id="mask0_165_2" style="mask-type:luminance" maskUnits="userSpaceOnUse" x="31" y="53" width="71" height="63">
<path d="M90.9124 115.812H43.2128C41.0414 115.812 31.7969 71.6622 31.7969 68.7711V58.3725C31.7969 55.4734 33.5532 53.1254 35.7246 53.1254H97.6902C99.8616 53.1254 101.618 55.4734 101.618 58.3725V68.7711C101.618 71.6702 93.0918 115.812 90.9284 115.812H90.9124Z" fill="white"/>
</mask>
<g mask="url(#mask0_165_2)">
<path d="M106.192 57.2305H27.2939V73.6748H106.192V57.2305Z" fill="#846353"/>
</g>
<path d="M103.805 51.0648H29.5936C27.9315 51.0648 26.584 52.4129 26.584 54.0758V65.9758C26.584 67.6387 27.9315 68.9867 29.5936 68.9867H103.805C105.468 68.9867 106.815 67.6387 106.815 65.9758V54.0758C106.815 52.4129 105.468 51.0648 103.805 51.0648Z" fill="#A57E68"/>
</g>
<defs>
<filter id="filter0_d_165_2" x="21.8949" y="6.51002" width="89.6091" height="113.991" filterUnits="userSpaceOnUse" color-interpolation-filters="sRGB">
<feFlood flood-opacity="0" result="BackgroundImageFix"/>
<feColorMatrix in="SourceAlpha" type="matrix" values="0 0 0 0 0 0 0 0 0 0 0 0 0 0 0 0 0 0 127 0" result="hardAlpha"/>
<feOffset/>
<feGaussianBlur stdDeviation="2.34454"/>
<feColorMatrix type="matrix" values="0 0 0 0 0.262745 0 0 0 0 0.356863 0 0 0 0 0.282353 0 0 0 0.5 0"/>
<feBlend mode="normal" in2="BackgroundImageFix" result="effect1_dropShadow_165_2"/>
<feBlend mode="normal" in="SourceGraphic" in2="effect1_dropShadow_165_2" result="shape"/>
</filter>
<linearGradient id="paint0_linear_165_2" x1="66.5551" y1="71.9499" x2="66.5551" y2="17.2498" gradientUnits="userSpaceOnUse">
<stop stop-color="#92CB4F"/>
<stop offset="0.22" stop-color="#A1D15F"/>
<stop offset="1" stop-color="#D4E697"/>
</linearGradient>
</defs>
</svg>
