<svg width="131" height="163" viewBox="0 0 131 163" fill="none" xmlns="http://www.w3.org/2000/svg">
<g filter="url(#filter0_d_143_697)">
<path d="M67.9671 11.9242H62.366C45.7693 11.9242 32.3149 25.3785 32.3149 41.9753V66.8082C32.3149 83.4049 45.7693 96.8593 62.366 96.8593H67.9671C84.5639 96.8593 98.0182 83.4049 98.0182 66.8082V41.9753C98.0182 25.3785 84.5639 11.9242 67.9671 11.9242Z" fill="url(#paint0_linear_143_697)"/>
<path d="M34.7002 54.3806H26.7253C26.2721 54.3806 25.9048 54.748 25.9048 55.2011V55.9669C25.9048 56.42 26.2721 56.7873 26.7253 56.7873H34.7002C35.1534 56.7873 35.5207 56.42 35.5207 55.9669V55.2011C35.5207 54.748 35.1534 54.3806 34.7002 54.3806Z" fill="#3E4D22"/>
<path d="M103.609 46.3729H95.6339C95.1808 46.3729 94.8135 46.7403 94.8135 47.1934V47.9592C94.8135 48.4123 95.1808 48.7796 95.6339 48.7796H103.609C104.062 48.7796 104.429 48.4123 104.429 47.9592V47.1934C104.429 46.7403 104.062 46.3729 103.609 46.3729Z" fill="#3E4D22"/>
<path d="M34.8759 49.5514L27.2278 47.2917C26.7932 47.1633 26.3368 47.4115 26.2084 47.846L25.9915 48.5804C25.8631 49.015 26.1113 49.4714 26.5458 49.5998L34.194 51.8594C34.6285 51.9878 35.0849 51.7396 35.2133 51.3051L35.4303 50.5707C35.5587 50.1361 35.3105 49.6797 34.8759 49.5514Z" fill="#3E4D22"/>
<path d="M49.7761 17.1779L45.7887 10.2713C45.5621 9.87891 45.0603 9.74446 44.6679 9.97103L44.0047 10.3539C43.6123 10.5805 43.4778 11.0823 43.7044 11.4747L47.6919 18.3812C47.9184 18.7736 48.4202 18.9081 48.8126 18.6815L49.4758 18.2986C49.8682 18.0721 50.0027 17.5703 49.7761 17.1779Z" fill="#3E4D22"/>
<path d="M89.6977 24.5805L94.1769 19.723C94.4309 19.4476 94.4135 19.0185 94.1381 18.7646L93.6716 18.3344C93.3963 18.0805 92.9672 18.0979 92.7132 18.3733L88.234 23.2308C87.98 23.5062 87.9974 23.9353 88.2728 24.1892L88.7393 24.6193C89.0146 24.8733 89.4437 24.8559 89.6977 24.5805Z" fill="#3E4D22"/>
<path d="M91.863 28.3811L98.0996 26.1983C98.4531 26.0746 98.6394 25.6876 98.5157 25.3341L98.3061 24.7352C98.1823 24.3816 97.7954 24.1953 97.4418 24.3191L91.2053 26.5019C90.8517 26.6256 90.6654 27.0125 90.7892 27.3661L90.9988 27.965C91.1225 28.3185 91.5094 28.5048 91.863 28.3811Z" fill="#3E4D22"/>
<path opacity="0.17" d="M60.3645 22.3386C60.3645 22.3386 44.338 30.3464 52.3567 75.2207" stroke="#3E4D22" stroke-width="1.09396" stroke-miterlimit="10" stroke-linecap="round"/>
<path opacity="0.17" d="M71.5449 22.3386C71.5449 22.3386 87.6043 30.3464 79.5855 75.2207" stroke="#3E4D22" stroke-width="1.09396" stroke-miterlimit="10" stroke-linecap="round"/>
<path d="M98.5439 153.154H33.1798C30.2042 153.154 17.5361 92.6801 17.5361 88.72V74.4766C17.5361 70.5056 19.9428 67.2893 22.9184 67.2893H107.832C110.807 67.2893 113.214 70.5056 113.214 74.4766V88.72C113.214 92.6911 101.53 153.154 98.5658 153.154H98.5439Z" fill="#A57E68"/>
<mask id="mask0_143_697" style="mask-type:luminance" maskUnits="userSpaceOnUse" x="17" y="67" width="97" height="87">
<path d="M98.5439 153.154H33.1798C30.2042 153.154 17.5361 92.6801 17.5361 88.72V74.4766C17.5361 70.5056 19.9428 67.2893 22.9184 67.2893H107.832C110.807 67.2893 113.214 70.5056 113.214 74.4766V88.72C113.214 92.6911 101.53 153.154 98.5658 153.154H98.5439Z" fill="white"/>
</mask>
<g mask="url(#mask0_143_697)">
<path d="M119.482 72.9122H11.3662V95.4369H119.482V72.9122Z" fill="#846353"/>
</g>
<path d="M116.211 64.4669H14.5168C12.2391 64.4669 10.3926 66.3134 10.3926 68.5911V84.8912C10.3926 87.1689 12.2391 89.0154 14.5168 89.0154H116.211C118.489 89.0154 120.336 87.1689 120.336 84.8912V68.5911C120.336 66.3134 118.489 64.4669 116.211 64.4669Z" fill="#A57E68"/>
</g>
<defs>
<filter id="filter0_d_143_697" x="3.82882" y="3.2972" width="123.07" height="156.421" filterUnits="userSpaceOnUse" color-interpolation-filters="sRGB">
<feFlood flood-opacity="0" result="BackgroundImageFix"/>
<feColorMatrix in="SourceAlpha" type="matrix" values="0 0 0 0 0 0 0 0 0 0 0 0 0 0 0 0 0 0 127 0" result="hardAlpha"/>
<feOffset/>
<feGaussianBlur stdDeviation="3.28188"/>
<feColorMatrix type="matrix" values="0 0 0 0 0.262745 0 0 0 0 0.356863 0 0 0 0 0.282353 0 0 0 0.5 0"/>
<feBlend mode="normal" in2="BackgroundImageFix" result="effect1_dropShadow_143_697"/>
<feBlend mode="normal" in="SourceGraphic" in2="effect1_dropShadow_143_697" result="shape"/>
</filter>
<linearGradient id="paint0_linear_143_697" x1="65.1666" y1="93.0742" x2="65.1666" y2="18.1488" gradientUnits="userSpaceOnUse">
<stop stop-color="#92CB4F"/>
<stop offset="0.22" stop-color="#A1D15F"/>
<stop offset="1" stop-color="#D4E697"/>
</linearGradient>
</defs>
</svg>
