<svg width="22" height="43" viewBox="0 0 22 43" fill="none" xmlns="http://www.w3.org/2000/svg">
<path d="M11.4469 0.0100098C14.6169 0.55001 16.9569 2.82997 16.9569 6.21997V22.1699C20.7569 24.8499 22.5769 29.3499 21.4369 33.9399C20.3969 38.1499 16.7468 41.64 12.1468 42.11C11.7668 42.15 11.3669 42.23 11.2169 42.33H10.527C7.04696 42.12 0.806903 38.6099 0.216903 34.4399C-0.503097 29.3399 0.426864 24.6899 5.17686 21.9099L5.14683 5.98999C5.14683 2.72999 7.55696 0.59 10.527 0H11.4469V0.0100098ZM14.4769 23.58V5.97998C14.4769 3.95998 12.7771 2.49994 10.8871 2.55994C9.14707 2.61994 7.58702 4.04999 7.58702 5.98999V23.4299C3.66702 25.0699 1.68692 29.02 2.48692 32.97C3.28692 36.92 6.61688 39.6 10.4469 39.76C14.5269 39.93 18.067 37.1899 19.027 33.3999C20.037 29.4199 18.2169 25.48 14.4769 23.58Z" fill="#3E4D22"/>
<path d="M12.1968 26.6C14.6368 27.43 16.0067 29.68 15.6767 31.98C15.3067 34.55 13.1169 36.3099 10.6269 36.2199C8.13694 36.1299 6.21677 34.27 5.94677 31.88C5.67677 29.49 7.26682 27.18 9.74682 26.5V11.74C9.74682 11.07 10.3267 10.52 10.8967 10.48C11.5267 10.43 12.1968 10.98 12.1968 11.74V26.61V26.6Z" fill="#3E4D22"/>
</svg>
