<svg width="83" height="98" viewBox="0 0 83 98" fill="none" xmlns="http://www.w3.org/2000/svg">
<path d="M70.4032 0.0712232C48.5432 5.80122 42.4132 20.3612 40.9532 30.8412C36.1732 21.3812 25.3532 8.88122 1.96316 11.3212C0.733165 11.4512 -0.156835 12.5712 0.0231645 13.8012C1.34316 22.6512 8.35316 54.5312 39.7632 42.7512C41.1232 46.3212 42.9632 51.8812 42.2832 54.4612C42.2432 54.5912 42.2632 54.7212 42.3432 54.8412C42.6932 55.3612 45.3832 55.2812 45.8532 54.8112C45.9532 54.7112 46.0132 54.5812 46.0132 54.4512C45.9932 53.3012 45.8332 47.5712 44.3532 42.7812C79.7732 43.8312 74.9932 10.6112 73.0732 1.72122C72.8132 0.511223 71.5932 -0.228777 70.3932 0.0912232L70.4032 0.0712232Z" fill="#FEF9E7"/>
<path d="M43.6732 40.8413C44.0832 40.3313 44.2432 39.6513 44.0732 38.9713C42.2732 32.1413 33.6532 8.01131 1.97317 11.3213C0.743174 11.4513 -0.146826 12.5713 0.0331743 13.8013C1.35317 22.6513 8.36317 54.5313 39.7732 42.7513C41.1332 46.3213 42.9732 51.8813 42.2932 54.4613C42.2632 54.5913 42.2732 54.7213 42.3532 54.8413C42.7032 55.3613 45.3932 55.2813 45.8632 54.8113C45.9632 54.7113 46.0232 54.5813 46.0232 54.4513C46.0032 53.1413 45.8032 45.8913 43.6732 40.8513V40.8413Z" fill="url(#paint0_linear_131_259)"/>
<path d="M40.7532 40.7913C40.0232 33.7613 39.5832 8.15128 70.4032 0.0712782C71.6032 -0.238722 72.8232 0.491278 73.0832 1.70128C75.0232 10.7213 79.9532 44.8213 42.8032 42.7213C41.7332 42.6613 40.8632 41.8613 40.7532 40.7913Z" fill="url(#paint1_linear_131_259)"/>
<path d="M73.8132 97.5114H12.4132C10.2632 97.5114 8.52319 66.9814 8.52319 64.9814V57.7914C8.52319 55.7914 10.2632 54.1614 12.4132 54.1614H73.8132C75.9632 54.1614 77.7032 55.7814 77.7032 57.7914V64.9814C77.7032 66.9814 75.9632 97.5114 73.8132 97.5114Z" fill="#E5A37A"/>
<mask id="mask0_131_259" style="mask-type:luminance" maskUnits="userSpaceOnUse" x="8" y="54" width="70" height="44">
<path d="M73.8132 97.5114H12.4132C10.2632 97.5114 8.52319 66.9814 8.52319 64.9814V57.7914C8.52319 55.7914 10.2632 54.1614 12.4132 54.1614H73.8132C75.9632 54.1614 77.7032 55.7814 77.7032 57.7914V64.9814C77.7032 66.9814 75.9632 97.5114 73.8132 97.5114Z" fill="white"/>
</mask>
<g mask="url(#mask0_131_259)">
<path d="M82.2532 57.0013H4.07324V68.3713H82.2532V57.0013Z" fill="#C58C64"/>
</g>
<path d="M46.4731 81.8713C46.4731 83.7013 44.9931 85.1913 43.1531 85.1913C41.3131 85.1913 39.8331 83.7113 39.8331 81.8713" stroke="#3E4D22" stroke-width="2" stroke-miterlimit="10" stroke-linecap="round"/>
<path d="M30.7232 81.8714C32.0983 81.8714 33.2132 80.7565 33.2132 79.3814C33.2132 78.0062 32.0983 76.8914 30.7232 76.8914C29.348 76.8914 28.2332 78.0062 28.2332 79.3814C28.2332 80.7565 29.348 81.8714 30.7232 81.8714Z" fill="#3E4D22"/>
<path d="M55.6032 81.8714C56.9783 81.8714 58.0932 80.7565 58.0932 79.3814C58.0932 78.0062 56.9783 76.8914 55.6032 76.8914C54.228 76.8914 53.1132 78.0062 53.1132 79.3814C53.1132 80.7565 54.228 81.8714 55.6032 81.8714Z" fill="#3E4D22"/>
<path d="M79.0932 52.7313H7.13316C5.05105 52.7313 3.36316 54.4192 3.36316 56.5013V61.3513C3.36316 63.4334 5.05105 65.1213 7.13316 65.1213H79.0932C81.1753 65.1213 82.8632 63.4334 82.8632 61.3513V56.5013C82.8632 54.4192 81.1753 52.7313 79.0932 52.7313Z" fill="#E5A37A"/>
<defs>
<linearGradient id="paint0_linear_131_259" x1="23.0132" y1="51.3613" x2="23.0132" y2="16.0213" gradientUnits="userSpaceOnUse">
<stop stop-color="#92CB4F"/>
<stop offset="0.22" stop-color="#A1D15F"/>
<stop offset="1" stop-color="#D4E697"/>
</linearGradient>
<linearGradient id="paint1_linear_131_259" x1="57.4832" y1="39.1013" x2="57.4832" y2="4.86128" gradientUnits="userSpaceOnUse">
<stop stop-color="#92CB4F"/>
<stop offset="0.22" stop-color="#A1D15F"/>
<stop offset="1" stop-color="#D4E697"/>
</linearGradient>
</defs>
</svg>
